<svg xmlns="http://www.w3.org/2000/svg" xmlns:xlink="http://www.w3.org/1999/xlink" width="1920" zoomAndPan="magnify" viewBox="0 0 1440 809.999993" height="1080" preserveAspectRatio="xMidYMid meet" version="1.0"><defs><g/><clipPath id="ba5080485e"><rect x="0" width="1181" y="0" height="329"/></clipPath><clipPath id="1bb7459ba3"><rect x="0" width="1174" y="0" height="163"/></clipPath><clipPath id="ba2b20247f"><path d="M 111.074219 381.867188 L 141.640625 381.867188 L 141.640625 462.1875 L 111.074219 462.1875 Z M 111.074219 381.867188 " clip-rule="nonzero"/></clipPath><clipPath id="e6aa39ab09"><path d="M 113 466 L 140 466 L 140 492.117188 L 113 492.117188 Z M 113 466 " clip-rule="nonzero"/></clipPath><clipPath id="a6251f54be"><path d="M 14 267.132812 L 238.808594 267.132812 L 238.808594 543 L 14 543 Z M 14 267.132812 " clip-rule="nonzero"/></clipPath><clipPath id="d1bc0fc6d8"><path d="M 57 336 L 198.847656 336 L 198.847656 473.832031 L 57 473.832031 Z M 57 336 " clip-rule="nonzero"/></clipPath><clipPath id="23f0e97286"><path d="M 90.828125 336.363281 L 164.621094 336.363281 C 173.570312 336.363281 182.15625 339.917969 188.484375 346.246094 C 194.8125 352.574219 198.371094 361.160156 198.371094 370.113281 L 198.371094 440.082031 C 198.371094 449.035156 194.8125 457.621094 188.484375 463.949219 C 182.15625 470.277344 173.570312 473.832031 164.621094 473.832031 L 90.828125 473.832031 C 81.878906 473.832031 73.292969 470.277344 66.964844 463.949219 C 60.632812 457.621094 57.078125 449.035156 57.078125 440.082031 L 57.078125 370.113281 C 57.078125 361.160156 60.632812 352.574219 66.964844 346.246094 C 73.292969 339.917969 81.878906 336.363281 90.828125 336.363281 Z M 90.828125 336.363281 " clip-rule="nonzero"/></clipPath><clipPath id="d2adbc28bd"><path d="M 0 0.238281 L 141.480469 0.238281 L 141.480469 137.832031 L 0 137.832031 Z M 0 0.238281 " clip-rule="nonzero"/></clipPath><clipPath id="1cabaf3ca5"><path d="M 33.828125 0.363281 L 107.621094 0.363281 C 116.570312 0.363281 125.15625 3.917969 131.484375 10.246094 C 137.8125 16.574219 141.371094 25.160156 141.371094 34.113281 L 141.371094 104.082031 C 141.371094 113.035156 137.8125 121.621094 131.484375 127.949219 C 125.15625 134.277344 116.570312 137.832031 107.621094 137.832031 L 33.828125 137.832031 C 24.878906 137.832031 16.292969 134.277344 9.964844 127.949219 C 3.632812 121.621094 0.078125 113.035156 0.078125 104.082031 L 0.078125 34.113281 C 0.078125 25.160156 3.632812 16.574219 9.964844 10.246094 C 16.292969 3.917969 24.878906 0.363281 33.828125 0.363281 Z M 33.828125 0.363281 " clip-rule="nonzero"/></clipPath><clipPath id="f2bdf3ea4a"><rect x="0" width="142" y="0" height="138"/></clipPath><clipPath id="c89d6f0e33"><path d="M 60 309.839844 L 193.558594 309.839844 L 193.558594 499 L 60 499 Z M 60 309.839844 " clip-rule="nonzero"/></clipPath><clipPath id="e0e23009e4"><path d="M 99 387 L 156 387 L 156 461 L 99 461 Z M 99 387 " clip-rule="nonzero"/></clipPath><clipPath id="7f1a093879"><path d="M 92.816406 390.851562 L 150.085938 383.421875 L 159.636719 457.054688 L 102.367188 464.484375 Z M 92.816406 390.851562 " clip-rule="nonzero"/></clipPath><clipPath id="d104c1083e"><path d="M 92.816406 390.851562 L 150.085938 383.421875 L 159.636719 457.054688 L 102.367188 464.484375 Z M 92.816406 390.851562 " clip-rule="nonzero"/></clipPath><clipPath id="f03d8ff60b"><path d="M 110.875 469.1875 L 141.84375 469.1875 L 141.84375 500.160156 L 110.875 500.160156 Z M 110.875 469.1875 " clip-rule="nonzero"/></clipPath><clipPath id="3dcf1dcb38"><path d="M 126.359375 469.1875 C 117.808594 469.1875 110.875 476.121094 110.875 484.671875 C 110.875 493.226562 117.808594 500.160156 126.359375 500.160156 C 134.914062 500.160156 141.84375 493.226562 141.84375 484.671875 C 141.84375 476.121094 134.914062 469.1875 126.359375 469.1875 Z M 126.359375 469.1875 " clip-rule="nonzero"/></clipPath><clipPath id="fa3ca4a7a1"><path d="M 0.875 0.1875 L 31.84375 0.1875 L 31.84375 31.160156 L 0.875 31.160156 Z M 0.875 0.1875 " clip-rule="nonzero"/></clipPath><clipPath id="acb04df6ff"><path d="M 16.359375 0.1875 C 7.808594 0.1875 0.875 7.121094 0.875 15.671875 C 0.875 24.226562 7.808594 31.160156 16.359375 31.160156 C 24.914062 31.160156 31.84375 24.226562 31.84375 15.671875 C 31.84375 7.121094 24.914062 0.1875 16.359375 0.1875 Z M 16.359375 0.1875 " clip-rule="nonzero"/></clipPath><clipPath id="a285829a5f"><rect x="0" width="32" y="0" height="32"/></clipPath></defs><g transform="matrix(1, 0, 0, 1, 244, 183)"><g clip-path="url(#ba5080485e)"><g fill="#800000" fill-opacity="1"><g transform="translate(0.436918, 245.284778)"><g><path d="M 142.15625 -109 C 142.15625 -99.101562 139.875 -90.09375 135.3125 -81.96875 C 130.75 -73.851562 123.867188 -67.359375 114.671875 -62.484375 C 105.472656 -57.617188 94.226562 -55.1875 80.9375 -55.1875 L 58.4375 -55.1875 L 58.4375 0 L 12.984375 0 L 12.984375 -163.5 L 80.9375 -163.5 C 94.070312 -163.5 105.238281 -161.175781 114.4375 -156.53125 C 123.644531 -151.894531 130.566406 -145.476562 135.203125 -137.28125 C 139.835938 -129.09375 142.15625 -119.664062 142.15625 -109 Z M 76.53125 -91.375 C 89.363281 -91.375 95.78125 -97.25 95.78125 -109 C 95.78125 -120.90625 89.363281 -126.859375 76.53125 -126.859375 L 58.4375 -126.859375 L 58.4375 -91.375 Z M 76.53125 -91.375 "/></g></g></g><g fill="#800000" fill-opacity="1"><g transform="translate(147.929723, 245.284778)"><g><path d="M 161.640625 -163.5 L 104.125 -51.953125 L 104.125 0 L 58.4375 0 L 58.4375 -51.953125 L 0.921875 -163.5 L 52.875 -163.5 L 81.625 -100.421875 L 110.390625 -163.5 Z M 161.640625 -163.5 "/></g></g></g><g fill="#800000" fill-opacity="1"><g transform="translate(310.49648, 245.284778)"><g><path d="M 95.78125 0 L 63.3125 -60.296875 L 58.4375 -60.296875 L 58.4375 0 L 12.984375 0 L 12.984375 -163.5 L 84.640625 -163.5 C 97.785156 -163.5 108.914062 -161.21875 118.03125 -156.65625 C 127.15625 -152.09375 134.035156 -145.828125 138.671875 -137.859375 C 143.316406 -129.898438 145.640625 -120.972656 145.640625 -111.078125 C 145.640625 -99.953125 142.582031 -90.175781 136.46875 -81.75 C 130.363281 -73.320312 121.4375 -67.332031 109.6875 -63.78125 L 146.5625 0 Z M 58.4375 -91.375 L 80.9375 -91.375 C 87.125 -91.375 91.757812 -92.84375 94.84375 -95.78125 C 97.9375 -98.71875 99.484375 -102.96875 99.484375 -108.53125 C 99.484375 -113.789062 97.898438 -117.925781 94.734375 -120.9375 C 91.566406 -123.957031 86.96875 -125.46875 80.9375 -125.46875 L 58.4375 -125.46875 Z M 58.4375 -91.375 "/></g></g></g><g fill="#800000" fill-opacity="1"><g transform="translate(463.786935, 245.284778)"><g><path d="M 91.375 1.625 C 76.0625 1.625 61.988281 -1.96875 49.15625 -9.15625 C 36.332031 -16.34375 26.171875 -26.3125 18.671875 -39.0625 C 11.171875 -51.820312 7.421875 -66.242188 7.421875 -82.328125 C 7.421875 -98.398438 11.171875 -112.8125 18.671875 -125.5625 C 26.171875 -138.320312 36.332031 -148.257812 49.15625 -155.375 C 61.988281 -162.488281 76.0625 -166.046875 91.375 -166.046875 C 106.832031 -166.046875 120.9375 -162.488281 133.6875 -155.375 C 146.445312 -148.257812 156.535156 -138.320312 163.953125 -125.5625 C 171.378906 -112.8125 175.09375 -98.398438 175.09375 -82.328125 C 175.09375 -66.242188 171.378906 -51.820312 163.953125 -39.0625 C 156.535156 -26.3125 146.410156 -16.34375 133.578125 -9.15625 C 120.742188 -1.96875 106.675781 1.625 91.375 1.625 Z M 91.375 -40.578125 C 102.96875 -40.578125 112.125 -44.363281 118.84375 -51.9375 C 125.570312 -59.519531 128.9375 -69.648438 128.9375 -82.328125 C 128.9375 -95.316406 125.570312 -105.554688 118.84375 -113.046875 C 112.125 -120.546875 102.96875 -124.296875 91.375 -124.296875 C 79.625 -124.296875 70.421875 -120.546875 63.765625 -113.046875 C 57.117188 -105.554688 53.796875 -95.316406 53.796875 -82.328125 C 53.796875 -69.492188 57.117188 -59.328125 63.765625 -51.828125 C 70.421875 -44.328125 79.625 -40.578125 91.375 -40.578125 Z M 91.375 -40.578125 "/></g></g></g><g fill="#800000" fill-opacity="1"><g transform="translate(646.297664, 245.284778)"><g><path d="M 58.4375 -34.78125 L 109.234375 -34.78125 L 109.234375 0 L 12.984375 0 L 12.984375 -163.5 L 58.4375 -163.5 Z M 58.4375 -34.78125 "/></g></g></g><g fill="#800000" fill-opacity="1"><g transform="translate(760.163983, 245.284778)"><g><path d="M 58.4375 -127.078125 L 58.4375 -100.421875 L 110.625 -100.421875 L 110.625 -65.859375 L 58.4375 -65.859375 L 58.4375 -36.40625 L 117.578125 -36.40625 L 117.578125 0 L 12.984375 0 L 12.984375 -163.5 L 117.578125 -163.5 L 117.578125 -127.078125 Z M 58.4375 -127.078125 "/></g></g></g><g fill="#800000" fill-opacity="1"><g transform="translate(887.249006, 245.284778)"><g><path d="M 95.78125 0 L 63.3125 -60.296875 L 58.4375 -60.296875 L 58.4375 0 L 12.984375 0 L 12.984375 -163.5 L 84.640625 -163.5 C 97.785156 -163.5 108.914062 -161.21875 118.03125 -156.65625 C 127.15625 -152.09375 134.035156 -145.828125 138.671875 -137.859375 C 143.316406 -129.898438 145.640625 -120.972656 145.640625 -111.078125 C 145.640625 -99.953125 142.582031 -90.175781 136.46875 -81.75 C 130.363281 -73.320312 121.4375 -67.332031 109.6875 -63.78125 L 146.5625 0 Z M 58.4375 -91.375 L 80.9375 -91.375 C 87.125 -91.375 91.757812 -92.84375 94.84375 -95.78125 C 97.9375 -98.71875 99.484375 -102.96875 99.484375 -108.53125 C 99.484375 -113.789062 97.898438 -117.925781 94.734375 -120.9375 C 91.566406 -123.957031 86.96875 -125.46875 80.9375 -125.46875 L 58.4375 -125.46875 Z M 58.4375 -91.375 "/></g></g></g><g fill="#800000" fill-opacity="1"><g transform="translate(1040.539461, 245.284778)"><g><path d="M 136.125 -163.5 L 136.125 -127.3125 L 92.53125 -127.3125 L 92.53125 0 L 47.078125 0 L 47.078125 -127.3125 L 3.9375 -127.3125 L 3.9375 -163.5 Z M 136.125 -163.5 "/></g></g></g></g></g><g transform="matrix(1, 0, 0, 1, 251, 414)"><g clip-path="url(#1bb7459ba3)"><g fill="#800000" fill-opacity="1"><g transform="translate(0.988025, 121.71933)"><g><path d="M 61.546875 -81.265625 L 61.546875 -63.28125 L 29.046875 -63.28125 L 29.046875 -48.984375 L 53.015625 -48.984375 L 53.015625 -31.8125 L 29.046875 -31.8125 L 29.046875 0 L 6.453125 0 L 6.453125 -81.265625 Z M 61.546875 -81.265625 "/></g></g><g transform="translate(65.655329, 121.71933)"><g><path d="M 29.046875 -81.265625 L 29.046875 0 L 6.453125 0 L 6.453125 -81.265625 Z M 29.046875 -81.265625 "/></g></g><g transform="translate(101.158946, 121.71933)"><g><path d="M 47.609375 0 L 31.46875 -29.96875 L 29.046875 -29.96875 L 29.046875 0 L 6.453125 0 L 6.453125 -81.265625 L 42.078125 -81.265625 C 48.609375 -81.265625 54.140625 -80.128906 58.671875 -77.859375 C 63.203125 -75.597656 66.617188 -72.488281 68.921875 -68.53125 C 71.234375 -64.570312 72.390625 -60.132812 72.390625 -55.21875 C 72.390625 -49.675781 70.867188 -44.8125 67.828125 -40.625 C 64.796875 -36.4375 60.359375 -33.460938 54.515625 -31.703125 L 72.84375 0 Z M 29.046875 -45.421875 L 40.234375 -45.421875 C 43.304688 -45.421875 45.609375 -46.148438 47.140625 -47.609375 C 48.679688 -49.066406 49.453125 -51.175781 49.453125 -53.9375 C 49.453125 -56.550781 48.660156 -58.609375 47.078125 -60.109375 C 45.503906 -61.609375 43.222656 -62.359375 40.234375 -62.359375 L 29.046875 -62.359375 Z M 29.046875 -45.421875 "/></g></g></g><g fill="#800000" fill-opacity="1"><g transform="translate(177.353384, 121.71933)"><g><path d="M 29.046875 -63.171875 L 29.046875 -49.90625 L 54.984375 -49.90625 L 54.984375 -32.734375 L 29.046875 -32.734375 L 29.046875 -18.09375 L 58.4375 -18.09375 L 58.4375 0 L 6.453125 0 L 6.453125 -81.265625 L 58.4375 -81.265625 L 58.4375 -63.171875 Z M 29.046875 -63.171875 "/></g></g></g><g fill="#800000" fill-opacity="1"><g transform="translate(240.522167, 121.71933)"><g/></g></g><g fill="#800000" fill-opacity="1"><g transform="translate(262.539019, 121.71933)"><g><path d="M 57.859375 -13.25 L 29.046875 -13.25 L 24.671875 0 L 0.921875 0 L 30.546875 -81.265625 L 56.59375 -81.265625 L 86.109375 0 L 62.25 0 Z M 52.21875 -30.546875 L 43.453125 -56.828125 L 34.8125 -30.546875 Z M 52.21875 -30.546875 "/></g></g></g><g fill="#800000" fill-opacity="1"><g transform="translate(349.568989, 121.71933)"><g><path d="M 29.046875 -17.296875 L 54.296875 -17.296875 L 54.296875 0 L 6.453125 0 L 6.453125 -81.265625 L 29.046875 -81.265625 Z M 29.046875 -17.296875 "/></g></g></g><g fill="#800000" fill-opacity="1"><g transform="translate(406.167292, 121.71933)"><g><path d="M 29.046875 -63.171875 L 29.046875 -49.90625 L 54.984375 -49.90625 L 54.984375 -32.734375 L 29.046875 -32.734375 L 29.046875 -18.09375 L 58.4375 -18.09375 L 58.4375 0 L 6.453125 0 L 6.453125 -81.265625 L 58.4375 -81.265625 L 58.4375 -63.171875 Z M 29.046875 -63.171875 "/></g></g></g><g fill="#800000" fill-opacity="1"><g transform="translate(469.336075, 121.71933)"><g><path d="M 47.609375 0 L 31.46875 -29.96875 L 29.046875 -29.96875 L 29.046875 0 L 6.453125 0 L 6.453125 -81.265625 L 42.078125 -81.265625 C 48.609375 -81.265625 54.140625 -80.128906 58.671875 -77.859375 C 63.203125 -75.597656 66.617188 -72.488281 68.921875 -68.53125 C 71.234375 -64.570312 72.390625 -60.132812 72.390625 -55.21875 C 72.390625 -49.675781 70.867188 -44.8125 67.828125 -40.625 C 64.796875 -36.4375 60.359375 -33.460938 54.515625 -31.703125 L 72.84375 0 Z M 29.046875 -45.421875 L 40.234375 -45.421875 C 43.304688 -45.421875 45.609375 -46.148438 47.140625 -47.609375 C 48.679688 -49.066406 49.453125 -51.175781 49.453125 -53.9375 C 49.453125 -56.550781 48.660156 -58.609375 47.078125 -60.109375 C 45.503906 -61.609375 43.222656 -62.359375 40.234375 -62.359375 L 29.046875 -62.359375 Z M 29.046875 -45.421875 "/></g></g></g><g fill="#800000" fill-opacity="1"><g transform="translate(545.530539, 121.71933)"><g><path d="M 67.65625 -81.265625 L 67.65625 -63.28125 L 45.984375 -63.28125 L 45.984375 0 L 23.40625 0 L 23.40625 -63.28125 L 1.953125 -63.28125 L 1.953125 -81.265625 Z M 67.65625 -81.265625 "/></g></g></g><g fill="#800000" fill-opacity="1"><g transform="translate(615.154465, 121.71933)"><g/></g></g><g fill="#800000" fill-opacity="1"><g transform="translate(637.171286, 121.71933)"><g><path d="M 37.109375 0.8125 C 27.660156 0.8125 19.898438 -1.429688 13.828125 -5.921875 C 7.753906 -10.421875 4.488281 -16.863281 4.03125 -25.25 L 28.125 -25.25 C 28.351562 -22.40625 29.195312 -20.328125 30.65625 -19.015625 C 32.113281 -17.710938 34 -17.0625 36.3125 -17.0625 C 38.382812 -17.0625 40.09375 -17.578125 41.4375 -18.609375 C 42.78125 -19.648438 43.453125 -21.09375 43.453125 -22.9375 C 43.453125 -25.320312 42.335938 -27.164062 40.109375 -28.46875 C 37.878906 -29.78125 34.269531 -31.238281 29.28125 -32.84375 C 23.976562 -34.613281 19.691406 -36.320312 16.421875 -37.96875 C 13.160156 -39.625 10.316406 -42.046875 7.890625 -45.234375 C 5.472656 -48.429688 4.265625 -52.601562 4.265625 -57.75 C 4.265625 -62.976562 5.570312 -67.453125 8.1875 -71.171875 C 10.800781 -74.898438 14.410156 -77.722656 19.015625 -79.640625 C 23.628906 -81.566406 28.851562 -82.53125 34.6875 -82.53125 C 44.144531 -82.53125 51.695312 -80.320312 57.34375 -75.90625 C 62.988281 -71.488281 66.003906 -65.28125 66.390625 -57.28125 L 41.84375 -57.28125 C 41.757812 -59.738281 41.007812 -61.582031 39.59375 -62.8125 C 38.175781 -64.039062 36.351562 -64.65625 34.125 -64.65625 C 32.425781 -64.65625 31.039062 -64.15625 29.96875 -63.15625 C 28.894531 -62.164062 28.359375 -60.75 28.359375 -58.90625 C 28.359375 -57.363281 28.953125 -56.035156 30.140625 -54.921875 C 31.328125 -53.804688 32.804688 -52.84375 34.578125 -52.03125 C 36.347656 -51.226562 38.960938 -50.210938 42.421875 -48.984375 C 47.566406 -47.222656 51.8125 -45.476562 55.15625 -43.75 C 58.5 -42.019531 61.378906 -39.597656 63.796875 -36.484375 C 66.222656 -33.367188 67.4375 -29.429688 67.4375 -24.671875 C 67.4375 -19.828125 66.222656 -15.484375 63.796875 -11.640625 C 61.378906 -7.796875 57.882812 -4.757812 53.3125 -2.53125 C 48.738281 -0.300781 43.335938 0.8125 37.109375 0.8125 Z M 37.109375 0.8125 "/></g></g></g><g fill="#800000" fill-opacity="1"><g transform="translate(708.639673, 121.71933)"><g><path d="M 80.34375 -81.265625 L 51.75 -25.8125 L 51.75 0 L 29.046875 0 L 29.046875 -25.8125 L 0.46875 -81.265625 L 26.28125 -81.265625 L 40.578125 -49.90625 L 54.859375 -81.265625 Z M 80.34375 -81.265625 "/></g></g></g><g fill="#800000" fill-opacity="1"><g transform="translate(789.444946, 121.71933)"><g><path d="M 37.109375 0.8125 C 27.660156 0.8125 19.898438 -1.429688 13.828125 -5.921875 C 7.753906 -10.421875 4.488281 -16.863281 4.03125 -25.25 L 28.125 -25.25 C 28.351562 -22.40625 29.195312 -20.328125 30.65625 -19.015625 C 32.113281 -17.710938 34 -17.0625 36.3125 -17.0625 C 38.382812 -17.0625 40.09375 -17.578125 41.4375 -18.609375 C 42.78125 -19.648438 43.453125 -21.09375 43.453125 -22.9375 C 43.453125 -25.320312 42.335938 -27.164062 40.109375 -28.46875 C 37.878906 -29.78125 34.269531 -31.238281 29.28125 -32.84375 C 23.976562 -34.613281 19.691406 -36.320312 16.421875 -37.96875 C 13.160156 -39.625 10.316406 -42.046875 7.890625 -45.234375 C 5.472656 -48.429688 4.265625 -52.601562 4.265625 -57.75 C 4.265625 -62.976562 5.570312 -67.453125 8.1875 -71.171875 C 10.800781 -74.898438 14.410156 -77.722656 19.015625 -79.640625 C 23.628906 -81.566406 28.851562 -82.53125 34.6875 -82.53125 C 44.144531 -82.53125 51.695312 -80.320312 57.34375 -75.90625 C 62.988281 -71.488281 66.003906 -65.28125 66.390625 -57.28125 L 41.84375 -57.28125 C 41.757812 -59.738281 41.007812 -61.582031 39.59375 -62.8125 C 38.175781 -64.039062 36.351562 -64.65625 34.125 -64.65625 C 32.425781 -64.65625 31.039062 -64.15625 29.96875 -63.15625 C 28.894531 -62.164062 28.359375 -60.75 28.359375 -58.90625 C 28.359375 -57.363281 28.953125 -56.035156 30.140625 -54.921875 C 31.328125 -53.804688 32.804688 -52.84375 34.578125 -52.03125 C 36.347656 -51.226562 38.960938 -50.210938 42.421875 -48.984375 C 47.566406 -47.222656 51.8125 -45.476562 55.15625 -43.75 C 58.5 -42.019531 61.378906 -39.597656 63.796875 -36.484375 C 66.222656 -33.367188 67.4375 -29.429688 67.4375 -24.671875 C 67.4375 -19.828125 66.222656 -15.484375 63.796875 -11.640625 C 61.378906 -7.796875 57.882812 -4.757812 53.3125 -2.53125 C 48.738281 -0.300781 43.335938 0.8125 37.109375 0.8125 Z M 37.109375 0.8125 "/></g></g><g transform="translate(860.913267, 121.71933)"><g><path d="M 67.65625 -81.265625 L 67.65625 -63.28125 L 45.984375 -63.28125 L 45.984375 0 L 23.40625 0 L 23.40625 -63.28125 L 1.953125 -63.28125 L 1.953125 -81.265625 Z M 67.65625 -81.265625 "/></g></g><g transform="translate(930.537245, 121.71933)"><g><path d="M 29.046875 -63.171875 L 29.046875 -49.90625 L 54.984375 -49.90625 L 54.984375 -32.734375 L 29.046875 -32.734375 L 29.046875 -18.09375 L 58.4375 -18.09375 L 58.4375 0 L 6.453125 0 L 6.453125 -81.265625 L 58.4375 -81.265625 L 58.4375 -63.171875 Z M 29.046875 -63.171875 "/></g></g></g><g fill="#800000" fill-opacity="1"><g transform="translate(993.706009, 121.71933)"><g><path d="M 101.3125 -81.265625 L 101.3125 0 L 78.71875 0 L 78.71875 -44.84375 L 63.390625 0 L 44.5 0 L 29.046875 -45.1875 L 29.046875 0 L 6.453125 0 L 6.453125 -81.265625 L 33.765625 -81.265625 L 54.171875 -28.46875 L 74.109375 -81.265625 Z M 101.3125 -81.265625 "/></g></g></g><g fill="#800000" fill-opacity="1"><g transform="translate(1101.484817, 121.71933)"><g><path d="M 37.109375 0.8125 C 27.660156 0.8125 19.898438 -1.429688 13.828125 -5.921875 C 7.753906 -10.421875 4.488281 -16.863281 4.03125 -25.25 L 28.125 -25.25 C 28.351562 -22.40625 29.195312 -20.328125 30.65625 -19.015625 C 32.113281 -17.710938 34 -17.0625 36.3125 -17.0625 C 38.382812 -17.0625 40.09375 -17.578125 41.4375 -18.609375 C 42.78125 -19.648438 43.453125 -21.09375 43.453125 -22.9375 C 43.453125 -25.320312 42.335938 -27.164062 40.109375 -28.46875 C 37.878906 -29.78125 34.269531 -31.238281 29.28125 -32.84375 C 23.976562 -34.613281 19.691406 -36.320312 16.421875 -37.96875 C 13.160156 -39.625 10.316406 -42.046875 7.890625 -45.234375 C 5.472656 -48.429688 4.265625 -52.601562 4.265625 -57.75 C 4.265625 -62.976562 5.570312 -67.453125 8.1875 -71.171875 C 10.800781 -74.898438 14.410156 -77.722656 19.015625 -79.640625 C 23.628906 -81.566406 28.851562 -82.53125 34.6875 -82.53125 C 44.144531 -82.53125 51.695312 -80.320312 57.34375 -75.90625 C 62.988281 -71.488281 66.003906 -65.28125 66.390625 -57.28125 L 41.84375 -57.28125 C 41.757812 -59.738281 41.007812 -61.582031 39.59375 -62.8125 C 38.175781 -64.039062 36.351562 -64.65625 34.125 -64.65625 C 32.425781 -64.65625 31.039062 -64.15625 29.96875 -63.15625 C 28.894531 -62.164062 28.359375 -60.75 28.359375 -58.90625 C 28.359375 -57.363281 28.953125 -56.035156 30.140625 -54.921875 C 31.328125 -53.804688 32.804688 -52.84375 34.578125 -52.03125 C 36.347656 -51.226562 38.960938 -50.210938 42.421875 -48.984375 C 47.566406 -47.222656 51.8125 -45.476562 55.15625 -43.75 C 58.5 -42.019531 61.378906 -39.597656 63.796875 -36.484375 C 66.222656 -33.367188 67.4375 -29.429688 67.4375 -24.671875 C 67.4375 -19.828125 66.222656 -15.484375 63.796875 -11.640625 C 61.378906 -7.796875 57.882812 -4.757812 53.3125 -2.53125 C 48.738281 -0.300781 43.335938 0.8125 37.109375 0.8125 Z M 37.109375 0.8125 "/></g></g></g></g></g><g clip-path="url(#ba2b20247f)"><path fill="#ffffff" d="M 125.601562 462.046875 L 133.621094 462.046875 L 141.640625 381.867188 L 111.074219 381.867188 L 119.09375 462.046875 L 125.601562 462.046875 " fill-opacity="1" fill-rule="nonzero"/></g><g clip-path="url(#e6aa39ab09)"><path fill="#ffffff" d="M 126.355469 466.570312 C 119.277344 466.570312 113.542969 472.304688 113.542969 479.382812 C 113.542969 486.460938 119.277344 492.199219 126.355469 492.199219 C 133.433594 492.199219 139.171875 486.460938 139.171875 479.382812 C 139.171875 472.304688 133.433594 466.570312 126.355469 466.570312 " fill-opacity="1" fill-rule="nonzero"/></g><g clip-path="url(#a6251f54be)"><path fill="#800000" d="M 107.191406 428.8125 L 169.535156 366.410156 C 169.859375 366.101562 170.207031 365.824219 170.585938 365.578125 C 170.960938 365.335938 171.355469 365.132812 171.769531 364.964844 C 172.1875 364.796875 172.613281 364.667969 173.054688 364.582031 C 173.492188 364.496094 173.9375 364.453125 174.382812 364.453125 C 174.832031 364.449219 175.277344 364.492188 175.714844 364.574219 C 176.15625 364.660156 176.582031 364.78125 177 364.949219 C 177.417969 365.113281 177.8125 365.316406 178.191406 365.558594 C 178.566406 365.796875 178.917969 366.074219 179.246094 366.378906 C 179.5625 366.699219 179.847656 367.046875 180.097656 367.417969 C 180.351562 367.792969 180.5625 368.1875 180.734375 368.605469 C 180.910156 369.019531 181.039062 369.449219 181.128906 369.890625 C 181.21875 370.332031 181.261719 370.78125 181.265625 371.230469 C 181.265625 371.679688 181.222656 372.128906 181.136719 372.570312 C 181.050781 373.011719 180.921875 373.441406 180.75 373.859375 C 180.582031 374.277344 180.371094 374.671875 180.121094 375.046875 C 179.875 375.425781 179.589844 375.773438 179.273438 376.09375 L 111.261719 444.171875 C 110.621094 444.820312 109.878906 445.316406 109.039062 445.667969 C 108.195312 446.019531 107.320312 446.195312 106.410156 446.191406 L 106.386719 446.191406 C 105.480469 446.195312 104.609375 446.023438 103.769531 445.679688 C 102.933594 445.332031 102.191406 444.839844 101.550781 444.199219 C 101.273438 443.921875 101.019531 443.625 100.796875 443.300781 L 72.785156 410.011719 C 72.519531 409.648438 72.289062 409.261719 72.097656 408.847656 C 71.90625 408.4375 71.757812 408.011719 71.648438 407.570312 C 71.542969 407.132812 71.480469 406.683594 71.460938 406.230469 C 71.445312 405.777344 71.46875 405.328125 71.539062 404.878906 C 71.609375 404.433594 71.726562 403.996094 71.882812 403.570312 C 72.039062 403.144531 72.238281 402.738281 72.472656 402.355469 C 72.710938 401.96875 72.984375 401.609375 73.292969 401.277344 C 73.601562 400.945312 73.941406 400.644531 74.308594 400.378906 C 74.675781 400.117188 75.066406 399.890625 75.476562 399.703125 C 75.890625 399.511719 76.316406 399.367188 76.757812 399.265625 C 77.199219 399.160156 77.648438 399.101562 78.101562 399.085938 C 78.554688 399.074219 79.003906 399.101562 79.453125 399.175781 C 79.898438 399.25 80.335938 399.371094 80.757812 399.53125 C 81.183594 399.691406 81.585938 399.890625 81.96875 400.132812 C 82.355469 400.371094 82.710938 400.648438 83.039062 400.960938 C 83.371094 401.269531 83.664062 401.613281 83.929688 401.980469 Z M 238.578125 423.667969 C 238.746094 444.121094 226.859375 468.25 205.109375 491.605469 C 195.738281 501.644531 185.476562 510.671875 174.320312 518.679688 L 173.839844 518.992188 C 173.640625 519.101562 173.457031 519.230469 173.285156 519.378906 L 172.832031 519.742188 C 159.539062 529.332031 145.160156 536.851562 129.699219 542.296875 L 127.742188 542.941406 L 125.773438 542.324219 C 121.066406 540.824219 116.453125 539.078125 111.929688 537.089844 C 111.648438 536.945312 111.363281 536.816406 111.066406 536.707031 L 110.683594 536.546875 C 99.230469 531.222656 88.367188 524.890625 78.089844 517.550781 C 67.808594 510.214844 58.292969 501.996094 49.535156 492.894531 C 40.273438 483.460938 32.351562 473.007812 25.777344 461.535156 L 25.539062 461.054688 C 25.433594 460.84375 25.3125 460.636719 25.171875 460.445312 L 24.90625 460 C 21.875 454.746094 19.515625 449.199219 17.832031 443.371094 C 16.144531 437.539062 15.183594 431.59375 14.941406 425.527344 L 14.136719 327.152344 L 14.617188 326.890625 L 125.449219 267.132812 L 125.875 267.355469 L 237.757812 325.332031 Z M 225.117188 333.09375 L 125.578125 281.535156 L 26.929688 334.71875 L 27.679688 425.425781 C 27.914062 430.414062 28.738281 435.304688 30.144531 440.09375 C 31.554688 444.882812 33.511719 449.4375 36.011719 453.757812 C 36.390625 454.34375 36.730469 454.949219 37.023438 455.578125 C 43.042969 465.996094 50.269531 475.492188 58.703125 484.074219 C 66.867188 492.5625 75.742188 500.234375 85.320312 507.085938 C 94.898438 513.9375 105.023438 519.859375 115.695312 524.84375 C 116.265625 525.054688 116.820312 525.296875 117.363281 525.574219 C 120.761719 527.027344 124.324219 528.414062 127.625 529.527344 C 141.066406 524.53125 153.605469 517.851562 165.25 509.488281 C 165.84375 508.996094 166.46875 508.554688 167.128906 508.15625 C 177.503906 500.679688 187.054688 492.269531 195.785156 482.921875 C 215.308594 461.953125 225.976562 440.945312 225.839844 423.761719 Z M 225.117188 333.09375 " fill-opacity="1" fill-rule="nonzero"/></g><g clip-path="url(#d1bc0fc6d8)"><g clip-path="url(#23f0e97286)"><g transform="matrix(1, 0, 0, 1, 57, 336)"><g clip-path="url(#f2bdf3ea4a)"><g clip-path="url(#d2adbc28bd)"><g clip-path="url(#1cabaf3ca5)"><path fill="#ffffff" d="M 0.078125 0.363281 L 141.308594 0.363281 L 141.308594 137.832031 L 0.078125 137.832031 Z M 0.078125 0.363281 " fill-opacity="1" fill-rule="nonzero"/></g></g></g></g></g></g><g clip-path="url(#c89d6f0e33)"><path fill="#800000" d="M 66 419.964844 C 70.921875 409.710938 79.328125 401.304688 88.65625 392.078125 C 97.984375 382.851562 108.238281 372.804688 113.363281 363.683594 C 118.488281 354.558594 118.488281 346.355469 114.078125 337.746094 C 109.671875 329.132812 100.855469 320.113281 95.523438 315.292969 C 90.195312 310.476562 88.347656 309.863281 91.117188 309.964844 C 93.882812 310.066406 101.265625 310.886719 110.695312 314.578125 C 120.128906 318.269531 131.609375 324.828125 141.042969 333.234375 C 150.472656 341.640625 157.855469 351.894531 161.953125 363.785156 C 166.054688 375.675781 166.875 389.207031 167.140625 397.308594 C 167.410156 405.40625 167.121094 408.070312 167.816406 410.058594 C 168.515625 412.050781 170.195312 413.363281 172.265625 413.710938 C 174.339844 414.058594 176.796875 413.445312 178.746094 411.289062 C 180.695312 409.136719 182.128906 405.449219 182.3125 400.320312 C 182.5 395.195312 181.433594 388.632812 180.816406 385.210938 C 180.203125 381.785156 180.039062 381.5 180.960938 382.8125 C 181.882812 384.125 183.894531 387.035156 185.902344 390.929688 C 187.910156 394.828125 189.921875 399.707031 191.191406 405.773438 C 192.464844 411.84375 192.996094 419.101562 193.203125 425.644531 C 193.40625 432.183594 193.285156 438.007812 191.171875 445.304688 C 163.492188 540.976562 31.023438 492.832031 66 419.964844 Z M 66 419.964844 " fill-opacity="1" fill-rule="evenodd"/></g><g clip-path="url(#e0e23009e4)"><g clip-path="url(#7f1a093879)"><g clip-path="url(#d104c1083e)"><path fill="#ffffff" d="M 114.726562 388.027344 C 121.667969 387.1875 130.207031 390.015625 136.113281 393.53125 C 144.75 398.675781 151.472656 407.429688 153.929688 417.222656 C 155.671875 424.167969 155.660156 431.054688 153.332031 437.878906 C 152.644531 439.898438 151.804688 441.882812 150.699219 443.714844 C 146.003906 451.492188 137.476562 457.996094 128.609375 460.167969 C 122.578125 461.5625 116.054688 460.476562 110.6875 457.457031 C 105.875 454.746094 101.816406 450.710938 100.308594 445.265625 C 99.457031 442.183594 99.351562 438.429688 100.09375 435.320312 C 101.34375 430.054688 105.023438 425.007812 109.527344 422.039062 C 115.003906 418.425781 121.019531 417.671875 124.519531 411.367188 C 126.261719 408.222656 126.316406 404.632812 125.332031 401.230469 C 125.28125 401.054688 125.226562 400.882812 125.167969 400.710938 C 125.113281 400.539062 125.054688 400.367188 124.996094 400.199219 C 124.933594 400.027344 124.871094 399.859375 124.808594 399.6875 C 124.742188 399.519531 124.679688 399.351562 124.609375 399.183594 C 124.542969 399.015625 124.472656 398.851562 124.398438 398.683594 C 124.324219 398.519531 124.25 398.351562 124.175781 398.1875 C 124.097656 398.023438 124.019531 397.863281 123.941406 397.699219 C 123.859375 397.539062 123.777344 397.375 123.695312 397.21875 C 123.609375 397.058594 123.523438 396.898438 123.4375 396.738281 C 123.347656 396.582031 123.257812 396.425781 123.167969 396.269531 C 123.074219 396.113281 122.980469 395.957031 122.886719 395.804688 C 122.789062 395.652344 122.691406 395.5 122.59375 395.347656 C 122.492188 395.195312 122.394531 395.046875 122.289062 394.898438 C 122.1875 394.75 122.082031 394.601562 121.976562 394.453125 C 121.871094 394.308594 121.761719 394.164062 121.652344 394.019531 C 121.542969 393.875 121.429688 393.734375 121.316406 393.59375 C 121.203125 393.453125 121.089844 393.3125 120.972656 393.171875 C 120.855469 393.035156 120.738281 392.898438 120.617188 392.765625 C 120.496094 392.628906 120.375 392.496094 120.253906 392.363281 C 120.128906 392.230469 120.003906 392.097656 119.878906 391.96875 C 119.753906 391.839844 119.625 391.710938 119.496094 391.585938 C 119.367188 391.460938 119.234375 391.335938 119.101562 391.210938 C 118.96875 391.085938 118.835938 390.964844 118.699219 390.847656 C 118.566406 390.726562 118.429688 390.609375 118.289062 390.492188 C 118.152344 390.375 118.011719 390.257812 117.871094 390.144531 C 117.730469 390.03125 117.589844 389.921875 117.445312 389.8125 C 117.300781 389.703125 117.15625 389.59375 117.007812 389.488281 C 116.863281 389.378906 116.714844 389.277344 116.566406 389.171875 C 116.417969 389.070312 116.269531 388.96875 116.117188 388.871094 C 115.964844 388.769531 115.8125 388.671875 115.660156 388.578125 C 115.507812 388.480469 115.351562 388.386719 115.195312 388.296875 C 115.039062 388.207031 114.882812 388.117188 114.726562 388.027344 Z M 114.726562 388.027344 " fill-opacity="1" fill-rule="nonzero"/></g></g></g><g clip-path="url(#f03d8ff60b)"><g clip-path="url(#3dcf1dcb38)"><g transform="matrix(1, 0, 0, 1, 110, 469)"><g clip-path="url(#a285829a5f)"><g clip-path="url(#fa3ca4a7a1)"><g clip-path="url(#acb04df6ff)"><path fill="#ffffff" d="M 0.875 0.1875 L 31.84375 0.1875 L 31.84375 31.160156 L 0.875 31.160156 Z M 0.875 0.1875 " fill-opacity="1" fill-rule="nonzero"/></g></g></g></g></g></g></svg>