<svg xmlns="http://www.w3.org/2000/svg" xmlns:xlink="http://www.w3.org/1999/xlink" width="1920" zoomAndPan="magnify" viewBox="0 0 1440 809.999993" height="1080" preserveAspectRatio="xMidYMid meet" version="1.0"><defs><g/><clipPath id="cfbaaec8f9"><rect x="0" width="1292" y="0" height="359"/></clipPath><clipPath id="35537efe01"><rect x="0" width="1284" y="0" height="179"/></clipPath></defs><g transform="matrix(1, 0, 0, 1, 80, 147)"><g clip-path="url(#cfbaaec8f9)"><g fill="#f1f1e6" fill-opacity="1"><g transform="translate(1.000002, 268.0485)"><g><path d="M 155.453125 -119.1875 C 155.453125 -108.363281 152.957031 -98.515625 147.96875 -89.640625 C 142.976562 -80.765625 135.453125 -73.664062 125.390625 -68.34375 C 115.335938 -63.019531 103.039062 -60.359375 88.5 -60.359375 L 63.90625 -60.359375 L 63.90625 0 L 14.203125 0 L 14.203125 -178.78125 L 88.5 -178.78125 C 102.875 -178.78125 115.085938 -176.242188 125.140625 -171.171875 C 135.203125 -166.097656 142.769531 -159.082031 147.84375 -150.125 C 152.914062 -141.164062 155.453125 -130.851562 155.453125 -119.1875 Z M 83.6875 -99.921875 C 97.71875 -99.921875 104.734375 -106.34375 104.734375 -119.1875 C 104.734375 -132.207031 97.71875 -138.71875 83.6875 -138.71875 L 63.90625 -138.71875 L 63.90625 -99.921875 Z M 83.6875 -99.921875 "/></g></g></g><g fill="#f1f1e6" fill-opacity="1"><g transform="translate(162.281557, 268.0485)"><g><path d="M 176.75 -178.78125 L 113.859375 -56.8125 L 113.859375 0 L 63.90625 0 L 63.90625 -56.8125 L 1.015625 -178.78125 L 57.8125 -178.78125 L 89.265625 -109.8125 L 120.703125 -178.78125 Z M 176.75 -178.78125 "/></g></g></g><g fill="#f1f1e6" fill-opacity="1"><g transform="translate(340.046292, 268.0485)"><g><path d="M 104.734375 0 L 69.234375 -65.9375 L 63.90625 -65.9375 L 63.90625 0 L 14.203125 0 L 14.203125 -178.78125 L 92.5625 -178.78125 C 106.925781 -178.78125 119.097656 -176.285156 129.078125 -171.296875 C 139.054688 -166.316406 146.578125 -159.472656 151.640625 -150.765625 C 156.710938 -142.054688 159.25 -132.289062 159.25 -121.46875 C 159.25 -109.300781 155.910156 -98.609375 149.234375 -89.390625 C 142.554688 -80.179688 132.796875 -73.628906 119.953125 -69.734375 L 160.265625 0 Z M 63.90625 -99.921875 L 88.5 -99.921875 C 95.257812 -99.921875 100.332031 -101.523438 103.71875 -104.734375 C 107.101562 -107.941406 108.796875 -112.59375 108.796875 -118.6875 C 108.796875 -124.425781 107.0625 -128.941406 103.59375 -132.234375 C 100.125 -135.535156 95.09375 -137.1875 88.5 -137.1875 L 63.90625 -137.1875 Z M 63.90625 -99.921875 "/></g></g></g><g fill="#f1f1e6" fill-opacity="1"><g transform="translate(507.667504, 268.0485)"><g><path d="M 99.921875 1.78125 C 83.179688 1.78125 67.796875 -2.148438 53.765625 -10.015625 C 39.734375 -17.878906 28.613281 -28.785156 20.40625 -42.734375 C 12.207031 -56.679688 8.109375 -72.445312 8.109375 -90.03125 C 8.109375 -107.613281 12.207031 -123.378906 20.40625 -137.328125 C 28.613281 -151.273438 39.734375 -162.132812 53.765625 -169.90625 C 67.796875 -177.6875 83.179688 -181.578125 99.921875 -181.578125 C 116.828125 -181.578125 132.253906 -177.6875 146.203125 -169.90625 C 160.148438 -162.132812 171.179688 -151.273438 179.296875 -137.328125 C 187.410156 -123.378906 191.46875 -107.613281 191.46875 -90.03125 C 191.46875 -72.445312 187.410156 -56.679688 179.296875 -42.734375 C 171.179688 -28.785156 160.101562 -17.878906 146.0625 -10.015625 C 132.03125 -2.148438 116.648438 1.78125 99.921875 1.78125 Z M 99.921875 -44.375 C 112.597656 -44.375 122.613281 -48.515625 129.96875 -56.796875 C 137.320312 -65.085938 141 -76.164062 141 -90.03125 C 141 -104.226562 137.320312 -115.425781 129.96875 -123.625 C 122.613281 -131.820312 112.597656 -135.921875 99.921875 -135.921875 C 87.066406 -135.921875 77.003906 -131.820312 69.734375 -123.625 C 62.460938 -115.425781 58.828125 -104.226562 58.828125 -90.03125 C 58.828125 -76 62.460938 -64.878906 69.734375 -56.671875 C 77.003906 -48.472656 87.066406 -44.375 99.921875 -44.375 Z M 99.921875 -44.375 "/></g></g></g><g fill="#f1f1e6" fill-opacity="1"><g transform="translate(707.240725, 268.0485)"><g><path d="M 63.90625 -38.03125 L 119.4375 -38.03125 L 119.4375 0 L 14.203125 0 L 14.203125 -178.78125 L 63.90625 -178.78125 Z M 63.90625 -38.03125 "/></g></g></g><g fill="#f1f1e6" fill-opacity="1"><g transform="translate(831.752134, 268.0485)"><g><path d="M 63.90625 -138.96875 L 63.90625 -109.8125 L 120.96875 -109.8125 L 120.96875 -72.015625 L 63.90625 -72.015625 L 63.90625 -39.8125 L 128.578125 -39.8125 L 128.578125 0 L 14.203125 0 L 14.203125 -178.78125 L 128.578125 -178.78125 L 128.578125 -138.96875 Z M 63.90625 -138.96875 "/></g></g></g><g fill="#f1f1e6" fill-opacity="1"><g transform="translate(970.718032, 268.0485)"><g><path d="M 104.734375 0 L 69.234375 -65.9375 L 63.90625 -65.9375 L 63.90625 0 L 14.203125 0 L 14.203125 -178.78125 L 92.5625 -178.78125 C 106.925781 -178.78125 119.097656 -176.285156 129.078125 -171.296875 C 139.054688 -166.316406 146.578125 -159.472656 151.640625 -150.765625 C 156.710938 -142.054688 159.25 -132.289062 159.25 -121.46875 C 159.25 -109.300781 155.910156 -98.609375 149.234375 -89.390625 C 142.554688 -80.179688 132.796875 -73.628906 119.953125 -69.734375 L 160.265625 0 Z M 63.90625 -99.921875 L 88.5 -99.921875 C 95.257812 -99.921875 100.332031 -101.523438 103.71875 -104.734375 C 107.101562 -107.941406 108.796875 -112.59375 108.796875 -118.6875 C 108.796875 -124.425781 107.0625 -128.941406 103.59375 -132.234375 C 100.125 -135.535156 95.09375 -137.1875 88.5 -137.1875 L 63.90625 -137.1875 Z M 63.90625 -99.921875 "/></g></g></g><g fill="#f1f1e6" fill-opacity="1"><g transform="translate(1138.339244, 268.0485)"><g><path d="M 148.859375 -178.78125 L 148.859375 -139.21875 L 101.1875 -139.21875 L 101.1875 0 L 51.484375 0 L 51.484375 -139.21875 L 4.3125 -139.21875 L 4.3125 -178.78125 Z M 148.859375 -178.78125 "/></g></g></g></g></g><g transform="matrix(1, 0, 0, 1, 88, 417)"><g clip-path="url(#35537efe01)"><g fill="#f1f1e6" fill-opacity="1"><g transform="translate(0.516657, 133.158805)"><g><path d="M 67.3125 -88.859375 L 67.3125 -69.203125 L 31.765625 -69.203125 L 31.765625 -53.5625 L 57.984375 -53.5625 L 57.984375 -34.78125 L 31.765625 -34.78125 L 31.765625 0 L 7.0625 0 L 7.0625 -88.859375 Z M 67.3125 -88.859375 "/></g></g><g transform="translate(71.229553, 133.158805)"><g><path d="M 31.765625 -88.859375 L 31.765625 0 L 7.0625 0 L 7.0625 -88.859375 Z M 31.765625 -88.859375 "/></g></g><g transform="translate(110.05232, 133.158805)"><g><path d="M 52.0625 0 L 34.40625 -32.765625 L 31.765625 -32.765625 L 31.765625 0 L 7.0625 0 L 7.0625 -88.859375 L 46 -88.859375 C 53.144531 -88.859375 59.195312 -87.617188 64.15625 -85.140625 C 69.113281 -82.660156 72.851562 -79.253906 75.375 -74.921875 C 77.894531 -70.597656 79.15625 -65.75 79.15625 -60.375 C 79.15625 -54.320312 77.492188 -49.003906 74.171875 -44.421875 C 70.859375 -39.847656 66.007812 -36.59375 59.625 -34.65625 L 79.65625 0 Z M 31.765625 -49.65625 L 43.984375 -49.65625 C 47.347656 -49.65625 49.867188 -50.453125 51.546875 -52.046875 C 53.234375 -53.648438 54.078125 -55.960938 54.078125 -58.984375 C 54.078125 -61.847656 53.210938 -64.097656 51.484375 -65.734375 C 49.765625 -67.367188 47.265625 -68.1875 43.984375 -68.1875 L 31.765625 -68.1875 Z M 31.765625 -49.65625 "/></g></g></g><g fill="#f1f1e6" fill-opacity="1"><g transform="translate(193.369995, 133.158805)"><g><path d="M 31.765625 -69.078125 L 31.765625 -54.578125 L 60.125 -54.578125 L 60.125 -35.796875 L 31.765625 -35.796875 L 31.765625 -19.796875 L 63.90625 -19.796875 L 63.90625 0 L 7.0625 0 L 7.0625 -88.859375 L 63.90625 -88.859375 L 63.90625 -69.078125 Z M 31.765625 -69.078125 "/></g></g></g><g fill="#f1f1e6" fill-opacity="1"><g transform="translate(262.444277, 133.158805)"><g/></g></g><g fill="#f1f1e6" fill-opacity="1"><g transform="translate(286.519432, 133.158805)"><g><path d="M 63.28125 -14.5 L 31.765625 -14.5 L 26.96875 0 L 1.015625 0 L 33.40625 -88.859375 L 61.890625 -88.859375 L 94.15625 0 L 68.0625 0 Z M 57.09375 -33.40625 L 47.515625 -62.140625 L 38.0625 -33.40625 Z M 57.09375 -33.40625 "/></g></g></g><g fill="#f1f1e6" fill-opacity="1"><g transform="translate(381.685627, 133.158805)"><g><path d="M 31.765625 -18.90625 L 59.375 -18.90625 L 59.375 0 L 7.0625 0 L 7.0625 -88.859375 L 31.765625 -88.859375 Z M 31.765625 -18.90625 "/></g></g></g><g fill="#f1f1e6" fill-opacity="1"><g transform="translate(443.575172, 133.158805)"><g><path d="M 31.765625 -69.078125 L 31.765625 -54.578125 L 60.125 -54.578125 L 60.125 -35.796875 L 31.765625 -35.796875 L 31.765625 -19.796875 L 63.90625 -19.796875 L 63.90625 0 L 7.0625 0 L 7.0625 -88.859375 L 63.90625 -88.859375 L 63.90625 -69.078125 Z M 31.765625 -69.078125 "/></g></g></g><g fill="#f1f1e6" fill-opacity="1"><g transform="translate(512.649454, 133.158805)"><g><path d="M 52.0625 0 L 34.40625 -32.765625 L 31.765625 -32.765625 L 31.765625 0 L 7.0625 0 L 7.0625 -88.859375 L 46 -88.859375 C 53.144531 -88.859375 59.195312 -87.617188 64.15625 -85.140625 C 69.113281 -82.660156 72.851562 -79.253906 75.375 -74.921875 C 77.894531 -70.597656 79.15625 -65.75 79.15625 -60.375 C 79.15625 -54.320312 77.492188 -49.003906 74.171875 -44.421875 C 70.859375 -39.847656 66.007812 -36.59375 59.625 -34.65625 L 79.65625 0 Z M 31.765625 -49.65625 L 43.984375 -49.65625 C 47.347656 -49.65625 49.867188 -50.453125 51.546875 -52.046875 C 53.234375 -53.648438 54.078125 -55.960938 54.078125 -58.984375 C 54.078125 -61.847656 53.210938 -64.097656 51.484375 -65.734375 C 49.765625 -67.367188 47.265625 -68.1875 43.984375 -68.1875 L 31.765625 -68.1875 Z M 31.765625 -49.65625 "/></g></g></g><g fill="#f1f1e6" fill-opacity="1"><g transform="translate(595.967158, 133.158805)"><g><path d="M 73.984375 -88.859375 L 73.984375 -69.203125 L 50.296875 -69.203125 L 50.296875 0 L 25.59375 0 L 25.59375 -69.203125 L 2.140625 -69.203125 L 2.140625 -88.859375 Z M 73.984375 -88.859375 "/></g></g></g><g fill="#f1f1e6" fill-opacity="1"><g transform="translate(672.10006, 133.158805)"><g/></g></g><g fill="#f1f1e6" fill-opacity="1"><g transform="translate(696.175181, 133.158805)"><g><path d="M 40.59375 0.875 C 30.25 0.875 21.757812 -1.578125 15.125 -6.484375 C 8.488281 -11.398438 4.914062 -18.441406 4.40625 -27.609375 L 30.75 -27.609375 C 31.007812 -24.492188 31.9375 -22.222656 33.53125 -20.796875 C 35.125 -19.367188 37.179688 -18.65625 39.703125 -18.65625 C 41.972656 -18.65625 43.84375 -19.222656 45.3125 -20.359375 C 46.78125 -21.492188 47.515625 -23.066406 47.515625 -25.078125 C 47.515625 -27.679688 46.296875 -29.695312 43.859375 -31.125 C 41.421875 -32.5625 37.472656 -34.160156 32.015625 -35.921875 C 26.210938 -37.859375 21.523438 -39.726562 17.953125 -41.53125 C 14.390625 -43.34375 11.28125 -45.988281 8.625 -49.46875 C 5.976562 -52.957031 4.65625 -57.519531 4.65625 -63.15625 C 4.65625 -68.863281 6.082031 -73.753906 8.9375 -77.828125 C 11.800781 -81.910156 15.753906 -85 20.796875 -87.09375 C 25.835938 -89.195312 31.550781 -90.25 37.9375 -90.25 C 48.269531 -90.25 56.523438 -87.832031 62.703125 -83 C 68.878906 -78.164062 72.179688 -71.378906 72.609375 -62.640625 L 45.75 -62.640625 C 45.664062 -65.328125 44.847656 -67.34375 43.296875 -68.6875 C 41.742188 -70.039062 39.75 -70.71875 37.3125 -70.71875 C 35.457031 -70.71875 33.941406 -70.171875 32.765625 -69.078125 C 31.585938 -67.984375 31 -66.425781 31 -64.40625 C 31 -62.726562 31.648438 -61.28125 32.953125 -60.0625 C 34.265625 -58.84375 35.882812 -57.789062 37.8125 -56.90625 C 39.75 -56.03125 42.609375 -54.914062 46.390625 -53.5625 C 52.015625 -51.632812 56.65625 -49.722656 60.3125 -47.828125 C 63.96875 -45.941406 67.117188 -43.296875 69.765625 -39.890625 C 72.410156 -36.484375 73.734375 -32.175781 73.734375 -26.96875 C 73.734375 -21.675781 72.410156 -16.925781 69.765625 -12.71875 C 67.117188 -8.519531 63.296875 -5.203125 58.296875 -2.765625 C 53.296875 -0.335938 47.394531 0.875 40.59375 0.875 Z M 40.59375 0.875 "/></g></g></g><g fill="#f1f1e6" fill-opacity="1"><g transform="translate(774.324978, 133.158805)"><g><path d="M 87.859375 -88.859375 L 56.59375 -28.234375 L 56.59375 0 L 31.765625 0 L 31.765625 -28.234375 L 0.5 -88.859375 L 28.734375 -88.859375 L 44.375 -54.578125 L 60 -88.859375 Z M 87.859375 -88.859375 "/></g></g></g><g fill="#f1f1e6" fill-opacity="1"><g transform="translate(862.684544, 133.158805)"><g><path d="M 40.59375 0.875 C 30.25 0.875 21.757812 -1.578125 15.125 -6.484375 C 8.488281 -11.398438 4.914062 -18.441406 4.40625 -27.609375 L 30.75 -27.609375 C 31.007812 -24.492188 31.9375 -22.222656 33.53125 -20.796875 C 35.125 -19.367188 37.179688 -18.65625 39.703125 -18.65625 C 41.972656 -18.65625 43.84375 -19.222656 45.3125 -20.359375 C 46.78125 -21.492188 47.515625 -23.066406 47.515625 -25.078125 C 47.515625 -27.679688 46.296875 -29.695312 43.859375 -31.125 C 41.421875 -32.5625 37.472656 -34.160156 32.015625 -35.921875 C 26.210938 -37.859375 21.523438 -39.726562 17.953125 -41.53125 C 14.390625 -43.34375 11.28125 -45.988281 8.625 -49.46875 C 5.976562 -52.957031 4.65625 -57.519531 4.65625 -63.15625 C 4.65625 -68.863281 6.082031 -73.753906 8.9375 -77.828125 C 11.800781 -81.910156 15.753906 -85 20.796875 -87.09375 C 25.835938 -89.195312 31.550781 -90.25 37.9375 -90.25 C 48.269531 -90.25 56.523438 -87.832031 62.703125 -83 C 68.878906 -78.164062 72.179688 -71.378906 72.609375 -62.640625 L 45.75 -62.640625 C 45.664062 -65.328125 44.847656 -67.34375 43.296875 -68.6875 C 41.742188 -70.039062 39.75 -70.71875 37.3125 -70.71875 C 35.457031 -70.71875 33.941406 -70.171875 32.765625 -69.078125 C 31.585938 -67.984375 31 -66.425781 31 -64.40625 C 31 -62.726562 31.648438 -61.28125 32.953125 -60.0625 C 34.265625 -58.84375 35.882812 -57.789062 37.8125 -56.90625 C 39.75 -56.03125 42.609375 -54.914062 46.390625 -53.5625 C 52.015625 -51.632812 56.65625 -49.722656 60.3125 -47.828125 C 63.96875 -45.941406 67.117188 -43.296875 69.765625 -39.890625 C 72.410156 -36.484375 73.734375 -32.175781 73.734375 -26.96875 C 73.734375 -21.675781 72.410156 -16.925781 69.765625 -12.71875 C 67.117188 -8.519531 63.296875 -5.203125 58.296875 -2.765625 C 53.296875 -0.335938 47.394531 0.875 40.59375 0.875 Z M 40.59375 0.875 "/></g></g><g transform="translate(940.834269, 133.158805)"><g><path d="M 73.984375 -88.859375 L 73.984375 -69.203125 L 50.296875 -69.203125 L 50.296875 0 L 25.59375 0 L 25.59375 -69.203125 L 2.140625 -69.203125 L 2.140625 -88.859375 Z M 73.984375 -88.859375 "/></g></g><g transform="translate(1016.967227, 133.158805)"><g><path d="M 31.765625 -69.078125 L 31.765625 -54.578125 L 60.125 -54.578125 L 60.125 -35.796875 L 31.765625 -35.796875 L 31.765625 -19.796875 L 63.90625 -19.796875 L 63.90625 0 L 7.0625 0 L 7.0625 -88.859375 L 63.90625 -88.859375 L 63.90625 -69.078125 Z M 31.765625 -69.078125 "/></g></g></g><g fill="#f1f1e6" fill-opacity="1"><g transform="translate(1086.041488, 133.158805)"><g><path d="M 110.796875 -88.859375 L 110.796875 0 L 86.09375 0 L 86.09375 -49.03125 L 69.328125 0 L 48.65625 0 L 31.765625 -49.40625 L 31.765625 0 L 7.0625 0 L 7.0625 -88.859375 L 36.9375 -88.859375 L 59.234375 -31.140625 L 81.046875 -88.859375 Z M 110.796875 -88.859375 "/></g></g></g><g fill="#f1f1e6" fill-opacity="1"><g transform="translate(1203.896282, 133.158805)"><g><path d="M 40.59375 0.875 C 30.25 0.875 21.757812 -1.578125 15.125 -6.484375 C 8.488281 -11.398438 4.914062 -18.441406 4.40625 -27.609375 L 30.75 -27.609375 C 31.007812 -24.492188 31.9375 -22.222656 33.53125 -20.796875 C 35.125 -19.367188 37.179688 -18.65625 39.703125 -18.65625 C 41.972656 -18.65625 43.84375 -19.222656 45.3125 -20.359375 C 46.78125 -21.492188 47.515625 -23.066406 47.515625 -25.078125 C 47.515625 -27.679688 46.296875 -29.695312 43.859375 -31.125 C 41.421875 -32.5625 37.472656 -34.160156 32.015625 -35.921875 C 26.210938 -37.859375 21.523438 -39.726562 17.953125 -41.53125 C 14.390625 -43.34375 11.28125 -45.988281 8.625 -49.46875 C 5.976562 -52.957031 4.65625 -57.519531 4.65625 -63.15625 C 4.65625 -68.863281 6.082031 -73.753906 8.9375 -77.828125 C 11.800781 -81.910156 15.753906 -85 20.796875 -87.09375 C 25.835938 -89.195312 31.550781 -90.25 37.9375 -90.25 C 48.269531 -90.25 56.523438 -87.832031 62.703125 -83 C 68.878906 -78.164062 72.179688 -71.378906 72.609375 -62.640625 L 45.75 -62.640625 C 45.664062 -65.328125 44.847656 -67.34375 43.296875 -68.6875 C 41.742188 -70.039062 39.75 -70.71875 37.3125 -70.71875 C 35.457031 -70.71875 33.941406 -70.171875 32.765625 -69.078125 C 31.585938 -67.984375 31 -66.425781 31 -64.40625 C 31 -62.726562 31.648438 -61.28125 32.953125 -60.0625 C 34.265625 -58.84375 35.882812 -57.789062 37.8125 -56.90625 C 39.75 -56.03125 42.609375 -54.914062 46.390625 -53.5625 C 52.015625 -51.632812 56.65625 -49.722656 60.3125 -47.828125 C 63.96875 -45.941406 67.117188 -43.296875 69.765625 -39.890625 C 72.410156 -36.484375 73.734375 -32.175781 73.734375 -26.96875 C 73.734375 -21.675781 72.410156 -16.925781 69.765625 -12.71875 C 67.117188 -8.519531 63.296875 -5.203125 58.296875 -2.765625 C 53.296875 -0.335938 47.394531 0.875 40.59375 0.875 Z M 40.59375 0.875 "/></g></g></g></g></g></svg>