<svg xmlns="http://www.w3.org/2000/svg" xmlns:xlink="http://www.w3.org/1999/xlink" width="2064" zoomAndPan="magnify" viewBox="0 0 1548 606.749999" height="809" preserveAspectRatio="xMidYMid meet" version="1.0"><defs><g/><clipPath id="9dbe7211a4"><rect x="0" width="1292" y="0" height="359"/></clipPath><clipPath id="8a4ea653db"><rect x="0" width="1284" y="0" height="179"/></clipPath></defs><g transform="matrix(1, 0, 0, 1, 134, 104)"><g clip-path="url(#9dbe7211a4)"><g fill="#002952" fill-opacity="1"><g transform="translate(0.918215, 267.787053)"><g><path d="M 155.390625 -119.140625 C 155.390625 -108.328125 152.894531 -98.484375 147.90625 -89.609375 C 142.925781 -80.734375 135.40625 -73.632812 125.34375 -68.3125 C 115.289062 -62.988281 103 -60.328125 88.46875 -60.328125 L 63.875 -60.328125 L 63.875 0 L 14.1875 0 L 14.1875 -178.703125 L 88.46875 -178.703125 C 102.832031 -178.703125 115.039062 -176.164062 125.09375 -171.09375 C 135.144531 -166.03125 142.707031 -159.019531 147.78125 -150.0625 C 152.851562 -141.101562 155.390625 -130.796875 155.390625 -119.140625 Z M 83.65625 -99.875 C 97.675781 -99.875 104.6875 -106.296875 104.6875 -119.140625 C 104.6875 -132.148438 97.675781 -138.65625 83.65625 -138.65625 L 63.875 -138.65625 L 63.875 -99.875 Z M 83.65625 -99.875 "/></g></g></g><g fill="#002952" fill-opacity="1"><g transform="translate(162.133345, 267.787053)"><g><path d="M 176.671875 -178.703125 L 113.8125 -56.78125 L 113.8125 0 L 63.875 0 L 63.875 -56.78125 L 1.015625 -178.703125 L 57.796875 -178.703125 L 89.21875 -109.765625 L 120.65625 -178.703125 Z M 176.671875 -178.703125 "/></g></g></g><g fill="#002952" fill-opacity="1"><g transform="translate(339.824866, 267.787053)"><g><path d="M 104.6875 0 L 69.203125 -65.90625 L 63.875 -65.90625 L 63.875 0 L 14.1875 0 L 14.1875 -178.703125 L 92.515625 -178.703125 C 106.878906 -178.703125 119.046875 -176.207031 129.015625 -171.21875 C 138.992188 -166.238281 146.515625 -159.394531 151.578125 -150.6875 C 156.648438 -141.988281 159.1875 -132.234375 159.1875 -121.421875 C 159.1875 -109.253906 155.847656 -98.5625 149.171875 -89.34375 C 142.492188 -80.132812 132.734375 -73.585938 119.890625 -69.703125 L 160.203125 0 Z M 63.875 -99.875 L 88.46875 -99.875 C 95.226562 -99.875 100.296875 -101.476562 103.671875 -104.6875 C 107.054688 -107.894531 108.75 -112.539062 108.75 -118.625 C 108.75 -124.375 107.015625 -128.894531 103.546875 -132.1875 C 100.085938 -135.488281 95.0625 -137.140625 88.46875 -137.140625 L 63.875 -137.140625 Z M 63.875 -99.875 "/></g></g></g><g fill="#002952" fill-opacity="1"><g transform="translate(507.377043, 267.787053)"><g><path d="M 99.875 1.78125 C 83.144531 1.78125 67.765625 -2.144531 53.734375 -10 C 39.710938 -17.863281 28.601562 -28.765625 20.40625 -42.703125 C 12.207031 -56.648438 8.109375 -72.410156 8.109375 -89.984375 C 8.109375 -107.554688 12.207031 -123.3125 20.40625 -137.25 C 28.601562 -151.195312 39.710938 -162.054688 53.734375 -169.828125 C 67.765625 -177.609375 83.144531 -181.5 99.875 -181.5 C 116.769531 -181.5 132.1875 -177.609375 146.125 -169.828125 C 160.070312 -162.054688 171.097656 -151.195312 179.203125 -137.25 C 187.316406 -123.3125 191.375 -107.554688 191.375 -89.984375 C 191.375 -72.410156 187.316406 -56.648438 179.203125 -42.703125 C 171.097656 -28.765625 160.03125 -17.863281 146 -10 C 131.976562 -2.144531 116.601562 1.78125 99.875 1.78125 Z M 99.875 -44.359375 C 112.550781 -44.359375 122.5625 -48.5 129.90625 -56.78125 C 137.257812 -65.0625 140.9375 -76.128906 140.9375 -89.984375 C 140.9375 -104.179688 137.257812 -115.378906 129.90625 -123.578125 C 122.5625 -131.773438 112.550781 -135.875 99.875 -135.875 C 87.03125 -135.875 76.972656 -131.773438 69.703125 -123.578125 C 62.441406 -115.378906 58.8125 -104.179688 58.8125 -89.984375 C 58.8125 -75.960938 62.441406 -64.851562 69.703125 -56.65625 C 76.972656 -48.457031 87.03125 -44.359375 99.875 -44.359375 Z M 99.875 -44.359375 "/></g></g></g><g fill="#002952" fill-opacity="1"><g transform="translate(706.868069, 267.787053)"><g><path d="M 63.875 -38.015625 L 119.390625 -38.015625 L 119.390625 0 L 14.1875 0 L 14.1875 -178.703125 L 63.875 -178.703125 Z M 63.875 -38.015625 "/></g></g></g><g fill="#002952" fill-opacity="1"><g transform="translate(831.328197, 267.787053)"><g><path d="M 63.875 -138.90625 L 63.875 -109.765625 L 120.90625 -109.765625 L 120.90625 -71.984375 L 63.875 -71.984375 L 63.875 -39.796875 L 128.515625 -39.796875 L 128.515625 0 L 14.1875 0 L 14.1875 -178.703125 L 128.515625 -178.703125 L 128.515625 -138.90625 Z M 63.875 -138.90625 "/></g></g></g><g fill="#002952" fill-opacity="1"><g transform="translate(970.236862, 267.787053)"><g><path d="M 104.6875 0 L 69.203125 -65.90625 L 63.875 -65.90625 L 63.875 0 L 14.1875 0 L 14.1875 -178.703125 L 92.515625 -178.703125 C 106.878906 -178.703125 119.046875 -176.207031 129.015625 -171.21875 C 138.992188 -166.238281 146.515625 -159.394531 151.578125 -150.6875 C 156.648438 -141.988281 159.1875 -132.234375 159.1875 -121.421875 C 159.1875 -109.253906 155.847656 -98.5625 149.171875 -89.34375 C 142.492188 -80.132812 132.734375 -73.585938 119.890625 -69.703125 L 160.203125 0 Z M 63.875 -99.875 L 88.46875 -99.875 C 95.226562 -99.875 100.296875 -101.476562 103.671875 -104.6875 C 107.054688 -107.894531 108.75 -112.539062 108.75 -118.625 C 108.75 -124.375 107.015625 -128.894531 103.546875 -132.1875 C 100.085938 -135.488281 95.0625 -137.140625 88.46875 -137.140625 L 63.875 -137.140625 Z M 63.875 -99.875 "/></g></g></g><g fill="#002952" fill-opacity="1"><g transform="translate(1137.789038, 267.787053)"><g><path d="M 148.796875 -178.703125 L 148.796875 -139.15625 L 101.140625 -139.15625 L 101.140625 0 L 51.453125 0 L 51.453125 -139.15625 L 4.3125 -139.15625 L 4.3125 -178.703125 Z M 148.796875 -178.703125 "/></g></g></g></g></g><g transform="matrix(1, 0, 0, 1, 142, 374)"><g clip-path="url(#8a4ea653db)"><g fill="#002952" fill-opacity="1"><g transform="translate(0.431774, 132.841734)"><g><path d="M 67.28125 -88.828125 L 67.28125 -69.171875 L 31.75 -69.171875 L 31.75 -53.546875 L 57.953125 -53.546875 L 57.953125 -34.78125 L 31.75 -34.78125 L 31.75 0 L 7.0625 0 L 7.0625 -88.828125 Z M 67.28125 -88.828125 "/></g></g><g transform="translate(71.115547, 132.841734)"><g><path d="M 31.75 -88.828125 L 31.75 0 L 7.0625 0 L 7.0625 -88.828125 Z M 31.75 -88.828125 "/></g></g><g transform="translate(109.922324, 132.841734)"><g><path d="M 52.03125 0 L 34.390625 -32.765625 L 31.75 -32.765625 L 31.75 0 L 7.0625 0 L 7.0625 -88.828125 L 45.984375 -88.828125 C 53.128906 -88.828125 59.175781 -87.585938 64.125 -85.109375 C 69.082031 -82.628906 72.820312 -79.226562 75.34375 -74.90625 C 77.863281 -70.582031 79.125 -65.734375 79.125 -60.359375 C 79.125 -54.304688 77.460938 -48.988281 74.140625 -44.40625 C 70.828125 -39.832031 65.976562 -36.582031 59.59375 -34.65625 L 79.625 0 Z M 31.75 -49.640625 L 43.96875 -49.640625 C 47.332031 -49.640625 49.851562 -50.4375 51.53125 -52.03125 C 53.207031 -53.632812 54.046875 -55.945312 54.046875 -58.96875 C 54.046875 -61.820312 53.1875 -64.066406 51.46875 -65.703125 C 49.75 -67.347656 47.25 -68.171875 43.96875 -68.171875 L 31.75 -68.171875 Z M 31.75 -49.640625 "/></g></g></g><g fill="#002952" fill-opacity="1"><g transform="translate(193.205684, 132.841734)"><g><path d="M 31.75 -69.046875 L 31.75 -54.5625 L 60.109375 -54.5625 L 60.109375 -35.78125 L 31.75 -35.78125 L 31.75 -19.78125 L 63.875 -19.78125 L 63.875 0 L 7.0625 0 L 7.0625 -88.828125 L 63.875 -88.828125 L 63.875 -69.046875 Z M 31.75 -69.046875 "/></g></g></g><g fill="#002952" fill-opacity="1"><g transform="translate(262.251518, 132.841734)"><g/></g></g><g fill="#002952" fill-opacity="1"><g transform="translate(286.316757, 132.841734)"><g><path d="M 63.25 -14.484375 L 31.75 -14.484375 L 26.96875 0 L 1.015625 0 L 33.390625 -88.828125 L 61.859375 -88.828125 L 94.125 0 L 68.046875 0 Z M 57.078125 -33.390625 L 47.5 -62.125 L 38.046875 -33.390625 Z M 57.078125 -33.390625 "/></g></g></g><g fill="#002952" fill-opacity="1"><g transform="translate(381.443758, 132.841734)"><g><path d="M 31.75 -18.90625 L 59.34375 -18.90625 L 59.34375 0 L 7.0625 0 L 7.0625 -88.828125 L 31.75 -88.828125 Z M 31.75 -18.90625 "/></g></g></g><g fill="#002952" fill-opacity="1"><g transform="translate(443.307813, 132.841734)"><g><path d="M 31.75 -69.046875 L 31.75 -54.5625 L 60.109375 -54.5625 L 60.109375 -35.78125 L 31.75 -35.78125 L 31.75 -19.78125 L 63.875 -19.78125 L 63.875 0 L 7.0625 0 L 7.0625 -88.828125 L 63.875 -88.828125 L 63.875 -69.046875 Z M 31.75 -69.046875 "/></g></g></g><g fill="#002952" fill-opacity="1"><g transform="translate(512.353647, 132.841734)"><g><path d="M 52.03125 0 L 34.390625 -32.765625 L 31.75 -32.765625 L 31.75 0 L 7.0625 0 L 7.0625 -88.828125 L 45.984375 -88.828125 C 53.128906 -88.828125 59.175781 -87.585938 64.125 -85.109375 C 69.082031 -82.628906 72.820312 -79.226562 75.34375 -74.90625 C 77.863281 -70.582031 79.125 -65.734375 79.125 -60.359375 C 79.125 -54.304688 77.460938 -48.988281 74.140625 -44.40625 C 70.828125 -39.832031 65.976562 -36.582031 59.59375 -34.65625 L 79.625 0 Z M 31.75 -49.640625 L 43.96875 -49.640625 C 47.332031 -49.640625 49.851562 -50.4375 51.53125 -52.03125 C 53.207031 -53.632812 54.046875 -55.945312 54.046875 -58.96875 C 54.046875 -61.820312 53.1875 -64.066406 51.46875 -65.703125 C 49.75 -67.347656 47.25 -68.171875 43.96875 -68.171875 L 31.75 -68.171875 Z M 31.75 -49.640625 "/></g></g></g><g fill="#002952" fill-opacity="1"><g transform="translate(595.637036, 132.841734)"><g><path d="M 73.96875 -88.828125 L 73.96875 -69.171875 L 50.28125 -69.171875 L 50.28125 0 L 25.578125 0 L 25.578125 -69.171875 L 2.140625 -69.171875 L 2.140625 -88.828125 Z M 73.96875 -88.828125 "/></g></g></g><g fill="#002952" fill-opacity="1"><g transform="translate(671.738582, 132.841734)"><g/></g></g><g fill="#002952" fill-opacity="1"><g transform="translate(695.803787, 132.841734)"><g><path d="M 40.578125 0.875 C 30.242188 0.875 21.757812 -1.578125 15.125 -6.484375 C 8.488281 -11.398438 4.914062 -18.4375 4.40625 -27.59375 L 30.75 -27.59375 C 31 -24.488281 31.921875 -22.21875 33.515625 -20.78125 C 35.109375 -19.351562 37.164062 -18.640625 39.6875 -18.640625 C 41.957031 -18.640625 43.828125 -19.207031 45.296875 -20.34375 C 46.765625 -21.476562 47.5 -23.054688 47.5 -25.078125 C 47.5 -27.679688 46.28125 -29.695312 43.84375 -31.125 C 41.40625 -32.550781 37.457031 -34.144531 32 -35.90625 C 26.207031 -37.84375 21.523438 -39.710938 17.953125 -41.515625 C 14.378906 -43.316406 11.269531 -45.960938 8.625 -49.453125 C 5.976562 -52.941406 4.65625 -57.5 4.65625 -63.125 C 4.65625 -68.832031 6.082031 -73.722656 8.9375 -77.796875 C 11.800781 -81.878906 15.75 -84.96875 20.78125 -87.0625 C 25.820312 -89.164062 31.535156 -90.21875 37.921875 -90.21875 C 48.253906 -90.21875 56.507812 -87.800781 62.6875 -82.96875 C 68.863281 -78.132812 72.160156 -71.351562 72.578125 -62.625 L 45.734375 -62.625 C 45.648438 -65.3125 44.832031 -67.328125 43.28125 -68.671875 C 41.726562 -70.015625 39.734375 -70.6875 37.296875 -70.6875 C 35.453125 -70.6875 33.941406 -70.140625 32.765625 -69.046875 C 31.585938 -67.953125 31 -66.398438 31 -64.390625 C 31 -62.703125 31.648438 -61.25 32.953125 -60.03125 C 34.253906 -58.820312 35.867188 -57.773438 37.796875 -56.890625 C 39.734375 -56.003906 42.59375 -54.890625 46.375 -53.546875 C 52 -51.617188 56.632812 -49.707031 60.28125 -47.8125 C 63.9375 -45.925781 67.085938 -43.28125 69.734375 -39.875 C 72.378906 -36.476562 73.703125 -32.175781 73.703125 -26.96875 C 73.703125 -21.675781 72.378906 -16.925781 69.734375 -12.71875 C 67.085938 -8.519531 63.265625 -5.203125 58.265625 -2.765625 C 53.273438 -0.335938 47.378906 0.875 40.578125 0.875 Z M 40.578125 0.875 "/></g></g></g><g fill="#002952" fill-opacity="1"><g transform="translate(773.921398, 132.841734)"><g><path d="M 87.828125 -88.828125 L 56.578125 -28.21875 L 56.578125 0 L 31.75 0 L 31.75 -28.21875 L 0.5 -88.828125 L 28.734375 -88.828125 L 44.359375 -54.5625 L 59.96875 -88.828125 Z M 87.828125 -88.828125 "/></g></g></g><g fill="#002952" fill-opacity="1"><g transform="translate(862.244573, 132.841734)"><g><path d="M 40.578125 0.875 C 30.242188 0.875 21.757812 -1.578125 15.125 -6.484375 C 8.488281 -11.398438 4.914062 -18.4375 4.40625 -27.59375 L 30.75 -27.59375 C 31 -24.488281 31.921875 -22.21875 33.515625 -20.78125 C 35.109375 -19.351562 37.164062 -18.640625 39.6875 -18.640625 C 41.957031 -18.640625 43.828125 -19.207031 45.296875 -20.34375 C 46.765625 -21.476562 47.5 -23.054688 47.5 -25.078125 C 47.5 -27.679688 46.28125 -29.695312 43.84375 -31.125 C 41.40625 -32.550781 37.457031 -34.144531 32 -35.90625 C 26.207031 -37.84375 21.523438 -39.710938 17.953125 -41.515625 C 14.378906 -43.316406 11.269531 -45.960938 8.625 -49.453125 C 5.976562 -52.941406 4.65625 -57.5 4.65625 -63.125 C 4.65625 -68.832031 6.082031 -73.722656 8.9375 -77.796875 C 11.800781 -81.878906 15.75 -84.96875 20.78125 -87.0625 C 25.820312 -89.164062 31.535156 -90.21875 37.921875 -90.21875 C 48.253906 -90.21875 56.507812 -87.800781 62.6875 -82.96875 C 68.863281 -78.132812 72.160156 -71.351562 72.578125 -62.625 L 45.734375 -62.625 C 45.648438 -65.3125 44.832031 -67.328125 43.28125 -68.671875 C 41.726562 -70.015625 39.734375 -70.6875 37.296875 -70.6875 C 35.453125 -70.6875 33.941406 -70.140625 32.765625 -69.046875 C 31.585938 -67.953125 31 -66.398438 31 -64.390625 C 31 -62.703125 31.648438 -61.25 32.953125 -60.03125 C 34.253906 -58.820312 35.867188 -57.773438 37.796875 -56.890625 C 39.734375 -56.003906 42.59375 -54.890625 46.375 -53.546875 C 52 -51.617188 56.632812 -49.707031 60.28125 -47.8125 C 63.9375 -45.925781 67.085938 -43.28125 69.734375 -39.875 C 72.378906 -36.476562 73.703125 -32.175781 73.703125 -26.96875 C 73.703125 -21.675781 72.378906 -16.925781 69.734375 -12.71875 C 67.085938 -8.519531 63.265625 -5.203125 58.265625 -2.765625 C 53.273438 -0.335938 47.378906 0.875 40.578125 0.875 Z M 40.578125 0.875 "/></g></g><g transform="translate(940.362111, 132.841734)"><g><path d="M 73.96875 -88.828125 L 73.96875 -69.171875 L 50.28125 -69.171875 L 50.28125 0 L 25.578125 0 L 25.578125 -69.171875 L 2.140625 -69.171875 L 2.140625 -88.828125 Z M 73.96875 -88.828125 "/></g></g><g transform="translate(1016.463713, 132.841734)"><g><path d="M 31.75 -69.046875 L 31.75 -54.5625 L 60.109375 -54.5625 L 60.109375 -35.78125 L 31.75 -35.78125 L 31.75 -19.78125 L 63.875 -19.78125 L 63.875 0 L 7.0625 0 L 7.0625 -88.828125 L 63.875 -88.828125 L 63.875 -69.046875 Z M 31.75 -69.046875 "/></g></g></g><g fill="#002952" fill-opacity="1"><g transform="translate(1085.509527, 132.841734)"><g><path d="M 110.75 -88.828125 L 110.75 0 L 86.0625 0 L 86.0625 -49.015625 L 69.296875 0 L 48.640625 0 L 31.75 -49.390625 L 31.75 0 L 7.0625 0 L 7.0625 -88.828125 L 36.921875 -88.828125 L 59.21875 -31.125 L 81.015625 -88.828125 Z M 110.75 -88.828125 "/></g></g></g><g fill="#002952" fill-opacity="1"><g transform="translate(1203.315781, 132.841734)"><g><path d="M 40.578125 0.875 C 30.242188 0.875 21.757812 -1.578125 15.125 -6.484375 C 8.488281 -11.398438 4.914062 -18.4375 4.40625 -27.59375 L 30.75 -27.59375 C 31 -24.488281 31.921875 -22.21875 33.515625 -20.78125 C 35.109375 -19.351562 37.164062 -18.640625 39.6875 -18.640625 C 41.957031 -18.640625 43.828125 -19.207031 45.296875 -20.34375 C 46.765625 -21.476562 47.5 -23.054688 47.5 -25.078125 C 47.5 -27.679688 46.28125 -29.695312 43.84375 -31.125 C 41.40625 -32.550781 37.457031 -34.144531 32 -35.90625 C 26.207031 -37.84375 21.523438 -39.710938 17.953125 -41.515625 C 14.378906 -43.316406 11.269531 -45.960938 8.625 -49.453125 C 5.976562 -52.941406 4.65625 -57.5 4.65625 -63.125 C 4.65625 -68.832031 6.082031 -73.722656 8.9375 -77.796875 C 11.800781 -81.878906 15.75 -84.96875 20.78125 -87.0625 C 25.820312 -89.164062 31.535156 -90.21875 37.921875 -90.21875 C 48.253906 -90.21875 56.507812 -87.800781 62.6875 -82.96875 C 68.863281 -78.132812 72.160156 -71.351562 72.578125 -62.625 L 45.734375 -62.625 C 45.648438 -65.3125 44.832031 -67.328125 43.28125 -68.671875 C 41.726562 -70.015625 39.734375 -70.6875 37.296875 -70.6875 C 35.453125 -70.6875 33.941406 -70.140625 32.765625 -69.046875 C 31.585938 -67.953125 31 -66.398438 31 -64.390625 C 31 -62.703125 31.648438 -61.25 32.953125 -60.03125 C 34.253906 -58.820312 35.867188 -57.773438 37.796875 -56.890625 C 39.734375 -56.003906 42.59375 -54.890625 46.375 -53.546875 C 52 -51.617188 56.632812 -49.707031 60.28125 -47.8125 C 63.9375 -45.925781 67.085938 -43.28125 69.734375 -39.875 C 72.378906 -36.476562 73.703125 -32.175781 73.703125 -26.96875 C 73.703125 -21.675781 72.378906 -16.925781 69.734375 -12.71875 C 67.085938 -8.519531 63.265625 -5.203125 58.265625 -2.765625 C 53.273438 -0.335938 47.378906 0.875 40.578125 0.875 Z M 40.578125 0.875 "/></g></g></g></g></g></svg>